<?xml version="1.0" encoding="UTF-8"?>
<svg width="3862px" height="3219px" viewBox="0 0 3862 3219" version="1.1" xmlns="http://www.w3.org/2000/svg" xmlns:xlink="http://www.w3.org/1999/xlink">
    <title>Artboard</title>
    <defs>
        <linearGradient x1="66.5658428%" y1="-3.24512413%" x2="33.1205758%" y2="68.3519589%" id="linearGradient-1">
            <stop stop-color="#FFFFFF" offset="0%"></stop>
            <stop stop-color="#E6B84E" offset="34.828807%"></stop>
            <stop stop-color="#D07401" offset="100%"></stop>
        </linearGradient>
        <linearGradient x1="54.8070386%" y1="51.5807001%" x2="43.0978216%" y2="64.237291%" id="linearGradient-2">
            <stop stop-color="#999693" offset="0%"></stop>
            <stop stop-color="#797674" offset="26.247742%"></stop>
            <stop stop-color="#494745" offset="82.3477109%"></stop>
            <stop stop-color="#444240" offset="100%"></stop>
        </linearGradient>
        <linearGradient x1="90.5305583%" y1="42.2941173%" x2="27.009248%" y2="51.1902646%" id="linearGradient-3">
            <stop stop-color="#FCFCFC" offset="0%"></stop>
            <stop stop-color="#BAC6A7" offset="21.306429%"></stop>
            <stop stop-color="#82995F" offset="58.4053028%"></stop>
            <stop stop-color="#6C8743" offset="78.8519254%"></stop>
            <stop stop-color="#527123" offset="100%"></stop>
        </linearGradient>
        <linearGradient x1="50%" y1="3.63478022%" x2="50%" y2="100%" id="linearGradient-4">
            <stop stop-color="#3A3734" offset="0%"></stop>
            <stop stop-color="#4D4C49" offset="34.6936834%"></stop>
            <stop stop-color="#656562" offset="42.5715849%"></stop>
            <stop stop-color="#808282" offset="49.0993262%"></stop>
            <stop stop-color="#1C1C1D" offset="52.1050099%"></stop>
            <stop stop-color="#000000" offset="100%"></stop>
        </linearGradient>
        <linearGradient x1="50%" y1="3.63478022%" x2="50%" y2="100%" id="linearGradient-5">
            <stop stop-color="#3A3734" offset="0%"></stop>
            <stop stop-color="#4D4C49" offset="34.6936834%"></stop>
            <stop stop-color="#656562" offset="42.5715849%"></stop>
            <stop stop-color="#808282" offset="49.0993262%"></stop>
            <stop stop-color="#1C1C1D" offset="52.1050099%"></stop>
            <stop stop-color="#000000" offset="100%"></stop>
        </linearGradient>
        <linearGradient x1="50%" y1="3.63478022%" x2="50%" y2="100%" id="linearGradient-6">
            <stop stop-color="#3A3734" offset="0%"></stop>
            <stop stop-color="#4D4C49" offset="34.6936834%"></stop>
            <stop stop-color="#656562" offset="42.5715849%"></stop>
            <stop stop-color="#808282" offset="49.0993262%"></stop>
            <stop stop-color="#1C1C1D" offset="52.1050099%"></stop>
            <stop stop-color="#000000" offset="100%"></stop>
        </linearGradient>
        <linearGradient x1="50%" y1="3.63478022%" x2="50%" y2="100%" id="linearGradient-7">
            <stop stop-color="#3A3734" offset="0%"></stop>
            <stop stop-color="#4D4C49" offset="34.6936834%"></stop>
            <stop stop-color="#656562" offset="42.5715849%"></stop>
            <stop stop-color="#808282" offset="49.0993262%"></stop>
            <stop stop-color="#1C1C1D" offset="52.1050099%"></stop>
            <stop stop-color="#000000" offset="100%"></stop>
        </linearGradient>
        <linearGradient x1="50%" y1="3.63478022%" x2="50%" y2="100%" id="linearGradient-8">
            <stop stop-color="#3A3734" offset="0%"></stop>
            <stop stop-color="#4D4C49" offset="34.6936834%"></stop>
            <stop stop-color="#656562" offset="42.5715849%"></stop>
            <stop stop-color="#808282" offset="49.0993262%"></stop>
            <stop stop-color="#1C1C1D" offset="52.1050099%"></stop>
            <stop stop-color="#000000" offset="100%"></stop>
        </linearGradient>
        <linearGradient x1="50%" y1="3.63478022%" x2="50%" y2="100%" id="linearGradient-9">
            <stop stop-color="#3A3734" offset="0%"></stop>
            <stop stop-color="#4D4C49" offset="34.6936834%"></stop>
            <stop stop-color="#656562" offset="42.5715849%"></stop>
            <stop stop-color="#808282" offset="49.0993262%"></stop>
            <stop stop-color="#1C1C1D" offset="52.1050099%"></stop>
            <stop stop-color="#000000" offset="100%"></stop>
        </linearGradient>
    </defs>
    <g id="Artboard" stroke="none" stroke-width="1" fill="none" fill-rule="evenodd">
        <g id="Group-14-Copy-2" transform="translate(86.355469, 95.722014)">
            <path d="M2159.64453,17.6561106 L1692.89409,1120.41267 C1255.1275,1241.64115 922.342642,1439.26292 694.539521,1713.27799 C689.493796,1704.00541 686.867964,1696.64878 686.662022,1691.20809 C686.435329,1685.21917 688.412209,1675.43137 692.592663,1661.84471 C973.740759,958.552923 1182.89593,496.883304 1320.05816,276.835859 L1416.05695,167.311152 C1550.18689,24.4062992 1784.22742,-26.8021075 2118.17854,13.6859324 L2138.58129,16.1648391 L2159.64453,17.6561106 Z" id="Path-25" stroke="#D27C10" stroke-width="2" fill="url(#linearGradient-1)"></path>
            <path d="M2159.64453,17.6561106 L3001.64453,2333.13444 C2632.02825,2351.52208 2351.64312,2148.16234 2160.48913,1723.05524 L2135.50342,1661.94861 C1962.06376,1219.00297 1861.84143,926.808817 1834.83643,785.366156 L1844.64453,764.203767 L2159.64453,17.6561106 Z" id="Path-27" stroke="#444240" stroke-width="2" fill="url(#linearGradient-2)"></path>
            <path d="M486.644531,2334.27799 L1267.30184,2334.27799 C1656.53382,1516.05373 2356.31472,1163.25872 3366.64453,1275.89297 L3326.75774,1243.90972 C2874.09134,991.505045 2257.86693,1002.16613 1478.08449,1275.89297 C1470.25685,1278.72299 1466.34302,1280.13801 1466.34302,1280.13801 C883.865887,1553.5723 559.86273,1888.98839 494.333551,2286.38626 L489.772816,2309.15423 L486.644531,2334.27799 Z" id="Path-26" stroke="#5D7B30" stroke-width="2" fill="url(#linearGradient-3)"></path>
            <path d="M137.636288,3006.52771 C136.215455,3015.78441 131.580025,3021.70117 123.729998,3024.27799 L0.64453125,3024.27799 L0.64453125,2695.77489 C23.7538769,2660.82618 64.7823657,2635.99388 123.729998,2621.27799 L561.315844,2628.76831 C630.952087,2638.11506 671.394983,2667.5684 682.644531,2717.12833 L682.533577,3022.1722 L544.367552,3024.27799 L544.367552,2934.7173 C543.732646,2917.0182 534.97572,2905.85467 518.096775,2901.22671 L221.200012,2901.65849 C210.259441,2897.5816 203.567886,2891.16572 201.125347,2882.41084 L202.411726,2814.20475 C203.993597,2802.42126 210.256359,2795.73407 221.200012,2794.14318 C436.181187,2795.1599 543.671775,2795.66826 543.671775,2795.66826 L540.947612,2729.3336 L137.636288,2729.3336 L137.636288,3001.48374 C139.057122,2995.58969 139.057122,2997.27101 137.636288,3006.52771 Z" id="Path-28" stroke="#979797" fill="url(#linearGradient-4)"></path>
            <path d="M867.109798,2764.90385 L729.294441,2764.90385 L729.294441,3002.90847 C726.53009,3017.21178 732.584234,3024.36344 747.456871,3024.36344 L1190.48797,3025.27799 C1258.96805,3023.54434 1311.35357,2997.18869 1347.64453,2946.21101 L1346.95113,2705.07937 C1325.14142,2665.39654 1278.23992,2637.46274 1206.24661,2621.27799 L746.814322,2622.17406 C735.134401,2626.6883 729.294441,2635.41963 729.294441,2648.36806 L728.896892,2728.3311 L1190.48797,2728.3311 C1200.99373,2732.08784 1206.24661,2739.12248 1206.24661,2749.43503 L1207.15265,2880.8669 C1203.0878,2899.4843 1191.21989,2910.99931 1171.54893,2915.41194 L887.91639,2920.63133 C874.045329,2914.84227 867.109798,2904.04473 867.109798,2888.23873 C867.109798,2872.43272 867.109798,2831.3211 867.109798,2764.90385 Z" id="Path-29" stroke="#979797" fill="url(#linearGradient-5)"></path>
            <path d="M1383.64453,2642.37415 L1383.64453,3024.27799 L1526.40402,3024.27799 L1526.40402,2734.22234 L1923.83632,2734.22234 C1944.915,2750.41053 1944.915,2767.73168 1923.83632,2786.18578 L1588.49849,2786.84706 L1852.30867,3016.08832 L2059.86641,3016.08832 L1923.83632,2903.99488 C2015.67234,2894.20674 2068.27508,2863.46428 2081.64453,2811.7675 L2081.28403,2699.79892 C2057.08406,2647.08171 2018.11576,2620.7231 1964.37913,2620.7231 L1406.83232,2617.27799 C1394.51703,2618.16875 1386.78777,2624.41379 1383.64453,2636.01312 L1383.71097,2639.69725 L1383.64453,2642.37415 Z" id="Path-30" stroke="#979797" fill="url(#linearGradient-6)"></path>
            <path d="M2680.22477,2616.90763 C2774.55427,2611.49979 2821.71901,2640.92688 2821.71901,2705.1889 L2821.71901,2705.1889 L2825.64453,2940.88311 C2816.759,3001.54093 2764.18781,3027.95732 2667.93097,3020.1323 L2667.93097,3020.1323 L2276.515,3023.94307 C2186.44046,3038.50477 2137.50231,3005.37944 2129.70053,2924.56709 L2129.70053,2924.56709 L2129.70053,2718.64683 L2129.64453,2714.49441 L2129.70053,2710.64376 C2142.76097,2648.0266 2191.54826,2616.71801 2276.06241,2616.71801 L2276.06241,2616.71801 Z M2668.64453,2718.27799 L2283.64453,2718.27799 C2274.25569,2718.27799 2266.64453,2725.88915 2266.64453,2735.27799 L2266.64453,2735.27799 L2266.64453,2893.27799 C2266.64453,2902.66683 2274.25569,2910.27799 2283.64453,2910.27799 L2283.64453,2910.27799 L2668.64453,2910.27799 C2678.03337,2910.27799 2685.64453,2902.66683 2685.64453,2893.27799 L2685.64453,2893.27799 L2685.64453,2735.27799 C2685.64453,2725.88915 2678.03337,2718.27799 2668.64453,2718.27799 L2668.64453,2718.27799 Z" id="Combined-Shape" stroke="#979797" fill="url(#linearGradient-7)"></path>
            <rect id="Rectangle" stroke="#979797" fill="url(#linearGradient-8)" x="2870.14453" y="2617.77799" width="141" height="406"></rect>
            <path d="M3307.85282,3027.27799 L3446.43001,3023.94546 L3446.43001,2718.7113 L3688.64453,2718.7113 L3688.64453,2639.13543 C3684.71615,2624.61852 3676.01428,2617.22891 3662.53893,2616.96657 L3081.61199,2616.27799 C3065.63369,2619.83646 3057.64453,2627.45561 3057.64453,2639.13543 L3058.32338,2722.59789 L3307.85282,2722.59789 L3307.85282,3027.27799 Z" id="Path-32" stroke="#979797" fill="url(#linearGradient-9)"></path>
        </g>
    </g>
</svg>